<svg width="30" height="30" viewBox="0 0 30 30" fill="none" xmlns="http://www.w3.org/2000/svg">
<path d="M12.2164 7.06354C11.8344 2.66954 7.25041 0.513543 7.05641 0.425543C6.87505 0.340291 6.67181 0.313053 6.47441 0.347544C1.18241 1.22554 0.386407 4.30554 0.354407 4.43354C0.310869 4.61192 0.317794 4.79888 0.374407 4.97354C6.68641 24.5575 19.8044 28.1875 24.1164 29.3815C24.4484 29.4735 24.7224 29.5475 24.9304 29.6155C25.1678 29.6931 25.4256 29.6781 25.6524 29.5735C25.7844 29.5135 28.9004 28.0455 29.6624 23.2575C29.6962 23.0485 29.6626 22.8342 29.5664 22.6455C29.4984 22.5135 27.8684 19.4115 23.3484 18.3155C23.1951 18.2763 23.0345 18.2749 22.8805 18.3115C22.7265 18.3481 22.5837 18.4216 22.4644 18.5255C21.0384 19.7435 19.0684 21.0415 18.2184 21.1755C12.5204 18.3895 9.33841 13.0435 9.21841 12.0295C9.14841 11.4595 10.4544 9.45754 11.9564 7.82954C12.0508 7.72708 12.1227 7.60599 12.1675 7.47407C12.2123 7.34214 12.2289 7.2023 12.2164 7.06354Z" fill="#34A853"/>
</svg>
